<?xml version="1.0" encoding="UTF-8" standalone="no"?><svg xmlns="http://www.w3.org/2000/svg" xmlns:xlink="http://www.w3.org/1999/xlink" contentScriptType="application/ecmascript" contentStyleType="text/css" height="930px" preserveAspectRatio="none" style="width:544px;height:930px;" version="1.1" viewBox="0 0 544 930" width="544px" zoomAndPan="magnify"><defs><filter height="300%" id="f1x8m76vsh0scr" width="300%" x="-1" y="-1"><feGaussianBlur result="blurOut" stdDeviation="2.0"/><feColorMatrix in="blurOut" result="blurOut2" type="matrix" values="0 0 0 0 0 0 0 0 0 0 0 0 0 0 0 0 0 0 .4 0"/><feOffset dx="4.0" dy="4.0" in="blurOut2" result="blurOut3"/><feBlend in="SourceGraphic" in2="blurOut3" mode="normal"/></filter></defs><g><!--class organisation--><rect fill="#FEFECE" filter="url(#f1x8m76vsh0scr)" height="78.998" id="organisation" style="stroke: #A80036; stroke-width: 1.5;" width="156" x="42.5" y="8"/><text fill="#000000" font-family="sans-serif" font-size="12" lengthAdjust="spacingAndGlyphs" textLength="78" x="81.5" y="24.6016">Organisations</text><line style="stroke: #A80036; stroke-width: 1.5;" x1="43.5" x2="197.5" y1="32.1328" y2="32.1328"/><ellipse cx="53.5" cy="44.1104" fill="#000000" rx="3" ry="3" style="stroke: #000000; stroke-width: 1.0;"/><text fill="#000000" font-family="sans-serif" font-size="11" lengthAdjust="spacingAndGlyphs" textLength="130" x="62.5" y="46.7676">id : number «generated»</text><line style="stroke: #A80036; stroke-width: 1.0;" x1="43.5" x2="197.5" y1="53.0879" y2="53.0879"/><ellipse cx="53.5" cy="65.0654" fill="#000000" rx="3" ry="3" style="stroke: #000000; stroke-width: 1.0;"/><text fill="#000000" font-family="sans-serif" font-size="11" lengthAdjust="spacingAndGlyphs" textLength="56" x="62.5" y="67.7227">code : text</text><text fill="#000000" font-family="sans-serif" font-size="11" lengthAdjust="spacingAndGlyphs" textLength="59" x="62.5" y="80.6777">name : text</text><!--class user--><rect fill="#FEFECE" filter="url(#f1x8m76vsh0scr)" height="104.9082" id="user" style="stroke: #A80036; stroke-width: 1.5;" width="189" x="6" y="148"/><text fill="#000000" font-family="sans-serif" font-size="12" lengthAdjust="spacingAndGlyphs" textLength="32" x="84.5" y="164.6016">Users</text><line style="stroke: #A80036; stroke-width: 1.5;" x1="7" x2="194" y1="172.1328" y2="172.1328"/><ellipse cx="17" cy="184.1104" fill="#000000" rx="3" ry="3" style="stroke: #000000; stroke-width: 1.0;"/><text fill="#000000" font-family="sans-serif" font-size="11" lengthAdjust="spacingAndGlyphs" textLength="130" x="26" y="186.7676">id : number «generated»</text><line style="stroke: #A80036; stroke-width: 1.0;" x1="7" x2="194" y1="193.0879" y2="193.0879"/><ellipse cx="17" cy="205.0654" fill="#000000" rx="3" ry="3" style="stroke: #000000; stroke-width: 1.0;"/><text fill="#000000" font-family="sans-serif" font-size="11" lengthAdjust="spacingAndGlyphs" textLength="163" x="26" y="207.7227">organisation_id : number «FK»</text><ellipse cx="17" cy="218.0205" fill="#000000" rx="3" ry="3" style="stroke: #000000; stroke-width: 1.0;"/><text fill="#000000" font-family="sans-serif" font-size="11" lengthAdjust="spacingAndGlyphs" textLength="56" x="26" y="220.6777">code : text</text><text fill="#000000" font-family="sans-serif" font-size="11" lengthAdjust="spacingAndGlyphs" textLength="56" x="26" y="233.6328">name: text</text><text fill="#000000" font-family="sans-serif" font-size="11" lengthAdjust="spacingAndGlyphs" textLength="85" x="26" y="246.5879">shortname: text</text><!--class office--><rect fill="#FEFECE" filter="url(#f1x8m76vsh0scr)" height="104.9082" id="office" style="stroke: #A80036; stroke-width: 1.5;" width="189" x="230" y="148"/><text fill="#000000" font-family="sans-serif" font-size="12" lengthAdjust="spacingAndGlyphs" textLength="39" x="305" y="164.6016">Offices</text><line style="stroke: #A80036; stroke-width: 1.5;" x1="231" x2="418" y1="172.1328" y2="172.1328"/><ellipse cx="241" cy="184.1104" fill="#000000" rx="3" ry="3" style="stroke: #000000; stroke-width: 1.0;"/><text fill="#000000" font-family="sans-serif" font-size="11" lengthAdjust="spacingAndGlyphs" textLength="130" x="250" y="186.7676">id : number «generated»</text><line style="stroke: #A80036; stroke-width: 1.0;" x1="231" x2="418" y1="193.0879" y2="193.0879"/><ellipse cx="241" cy="205.0654" fill="#000000" rx="3" ry="3" style="stroke: #000000; stroke-width: 1.0;"/><text fill="#000000" font-family="sans-serif" font-size="11" lengthAdjust="spacingAndGlyphs" textLength="163" x="250" y="207.7227">organisation_id : number «FK»</text><ellipse cx="241" cy="218.0205" fill="#000000" rx="3" ry="3" style="stroke: #000000; stroke-width: 1.0;"/><text fill="#000000" font-family="sans-serif" font-size="11" lengthAdjust="spacingAndGlyphs" textLength="56" x="250" y="220.6777">code : text</text><text fill="#000000" font-family="sans-serif" font-size="11" lengthAdjust="spacingAndGlyphs" textLength="59" x="250" y="233.6328">name : text</text><text fill="#000000" font-family="sans-serif" font-size="11" lengthAdjust="spacingAndGlyphs" textLength="88" x="250" y="246.5879">shortname : text</text><!--class journal--><rect fill="#FEFECE" filter="url(#f1x8m76vsh0scr)" height="104.9082" id="journal" style="stroke: #A80036; stroke-width: 1.5;" width="156" x="115.5" y="320.5"/><text fill="#000000" font-family="sans-serif" font-size="12" lengthAdjust="spacingAndGlyphs" textLength="46" x="170.5" y="337.1016">Journals</text><line style="stroke: #A80036; stroke-width: 1.5;" x1="116.5" x2="270.5" y1="344.6328" y2="344.6328"/><ellipse cx="126.5" cy="356.6104" fill="#000000" rx="3" ry="3" style="stroke: #000000; stroke-width: 1.0;"/><text fill="#000000" font-family="sans-serif" font-size="11" lengthAdjust="spacingAndGlyphs" textLength="130" x="135.5" y="359.2676">id : number «generated»</text><line style="stroke: #A80036; stroke-width: 1.0;" x1="116.5" x2="270.5" y1="365.5879" y2="365.5879"/><ellipse cx="126.5" cy="377.5654" fill="#000000" rx="3" ry="3" style="stroke: #000000; stroke-width: 1.0;"/><text fill="#000000" font-family="sans-serif" font-size="11" lengthAdjust="spacingAndGlyphs" textLength="125" x="135.5" y="380.2227">office_id : number «FK»</text><ellipse cx="126.5" cy="390.5205" fill="#000000" rx="3" ry="3" style="stroke: #000000; stroke-width: 1.0;"/><text fill="#000000" font-family="sans-serif" font-size="11" lengthAdjust="spacingAndGlyphs" textLength="56" x="135.5" y="393.1777">code : text</text><text fill="#000000" font-family="sans-serif" font-size="11" lengthAdjust="spacingAndGlyphs" textLength="59" x="135.5" y="406.1328">name : text</text><text fill="#000000" font-family="sans-serif" font-size="11" lengthAdjust="spacingAndGlyphs" textLength="88" x="135.5" y="419.0879">shortname : text</text><!--class dimension--><rect fill="#FEFECE" filter="url(#f1x8m76vsh0scr)" height="91.9531" id="dimension" style="stroke: #A80036; stroke-width: 1.5;" width="156" x="148.5" y="828"/><text fill="#000000" font-family="sans-serif" font-size="12" lengthAdjust="spacingAndGlyphs" textLength="66" x="193.5" y="844.6016">Dimensions</text><line style="stroke: #A80036; stroke-width: 1.5;" x1="149.5" x2="303.5" y1="852.1328" y2="852.1328"/><ellipse cx="159.5" cy="864.1104" fill="#000000" rx="3" ry="3" style="stroke: #000000; stroke-width: 1.0;"/><text fill="#000000" font-family="sans-serif" font-size="11" lengthAdjust="spacingAndGlyphs" textLength="130" x="168.5" y="866.7676">id : number «generated»</text><line style="stroke: #A80036; stroke-width: 1.0;" x1="149.5" x2="303.5" y1="873.0879" y2="873.0879"/><ellipse cx="159.5" cy="885.0654" fill="#000000" rx="3" ry="3" style="stroke: #000000; stroke-width: 1.0;"/><text fill="#000000" font-family="sans-serif" font-size="11" lengthAdjust="spacingAndGlyphs" textLength="125" x="168.5" y="887.7227">office_id : number «FK»</text><ellipse cx="159.5" cy="898.0205" fill="#000000" rx="3" ry="3" style="stroke: #000000; stroke-width: 1.0;"/><text fill="#000000" font-family="sans-serif" font-size="11" lengthAdjust="spacingAndGlyphs" textLength="53" x="168.5" y="900.6777">type : text</text><ellipse cx="159.5" cy="910.9756" fill="#000000" rx="3" ry="3" style="stroke: #000000; stroke-width: 1.0;"/><text fill="#000000" font-family="sans-serif" font-size="11" lengthAdjust="spacingAndGlyphs" textLength="56" x="168.5" y="913.6328">code : text</text><!--class transaction--><rect fill="#FEFECE" filter="url(#f1x8m76vsh0scr)" height="78.998" id="transaction" style="stroke: #A80036; stroke-width: 1.5;" width="159" x="108" y="493"/><text fill="#000000" font-family="sans-serif" font-size="12" lengthAdjust="spacingAndGlyphs" textLength="73" x="151" y="509.6016">Transactions</text><line style="stroke: #A80036; stroke-width: 1.5;" x1="109" x2="266" y1="517.1328" y2="517.1328"/><ellipse cx="119" cy="529.1104" fill="#000000" rx="3" ry="3" style="stroke: #000000; stroke-width: 1.0;"/><text fill="#000000" font-family="sans-serif" font-size="11" lengthAdjust="spacingAndGlyphs" textLength="130" x="128" y="531.7676">id : number «generated»</text><line style="stroke: #A80036; stroke-width: 1.0;" x1="109" x2="266" y1="538.0879" y2="538.0879"/><ellipse cx="119" cy="550.0654" fill="#000000" rx="3" ry="3" style="stroke: #000000; stroke-width: 1.0;"/><text fill="#000000" font-family="sans-serif" font-size="11" lengthAdjust="spacingAndGlyphs" textLength="133" x="128" y="552.7227">journal_id : number «FK»</text><ellipse cx="119" cy="563.0205" fill="#000000" rx="3" ry="3" style="stroke: #000000; stroke-width: 1.0;"/><text fill="#000000" font-family="sans-serif" font-size="11" lengthAdjust="spacingAndGlyphs" textLength="93" x="128" y="565.6777">number : number</text><!--class transaction_line--><rect fill="#FEFECE" filter="url(#f1x8m76vsh0scr)" height="117.8633" id="transaction_line" style="stroke: #A80036; stroke-width: 1.5;" width="190" x="81.5" y="633"/><text fill="#000000" font-family="sans-serif" font-size="12" lengthAdjust="spacingAndGlyphs" textLength="100" x="126.5" y="649.6016">Transaction Lines</text><line style="stroke: #A80036; stroke-width: 1.5;" x1="82.5" x2="270.5" y1="657.1328" y2="657.1328"/><ellipse cx="92.5" cy="669.1104" fill="#000000" rx="3" ry="3" style="stroke: #000000; stroke-width: 1.0;"/><text fill="#000000" font-family="sans-serif" font-size="11" lengthAdjust="spacingAndGlyphs" textLength="130" x="101.5" y="671.7676">id : number «generated»</text><line style="stroke: #A80036; stroke-width: 1.0;" x1="82.5" x2="270.5" y1="678.0879" y2="678.0879"/><ellipse cx="92.5" cy="690.0654" fill="#000000" rx="3" ry="3" style="stroke: #000000; stroke-width: 1.0;"/><text fill="#000000" font-family="sans-serif" font-size="11" lengthAdjust="spacingAndGlyphs" textLength="156" x="101.5" y="692.7227">transaction_id : number «FK»</text><ellipse cx="92.5" cy="703.0205" fill="#000000" rx="3" ry="3" style="stroke: #000000; stroke-width: 1.0;"/><text fill="#000000" font-family="sans-serif" font-size="11" lengthAdjust="spacingAndGlyphs" textLength="70" x="101.5" y="705.6777">line : number</text><text fill="#000000" font-family="sans-serif" font-size="11" lengthAdjust="spacingAndGlyphs" textLength="164" x="101.5" y="718.6328">dimension_1_id : number «FK»</text><text fill="#000000" font-family="sans-serif" font-size="11" lengthAdjust="spacingAndGlyphs" textLength="164" x="101.5" y="731.5879">dimension_2_id : number «FK»</text><text fill="#000000" font-family="sans-serif" font-size="11" lengthAdjust="spacingAndGlyphs" textLength="164" x="101.5" y="744.543">dimension_3_id : number «FK»</text><!--class vat_code--><rect fill="#FEFECE" filter="url(#f1x8m76vsh0scr)" height="117.8633" id="vat_code" style="stroke: #A80036; stroke-width: 1.5;" width="156" x="377.5" y="314"/><text fill="#000000" font-family="sans-serif" font-size="12" lengthAdjust="spacingAndGlyphs" textLength="64" x="423.5" y="330.6016">VAT Codes</text><line style="stroke: #A80036; stroke-width: 1.5;" x1="378.5" x2="532.5" y1="338.1328" y2="338.1328"/><ellipse cx="388.5" cy="350.1104" fill="#000000" rx="3" ry="3" style="stroke: #000000; stroke-width: 1.0;"/><text fill="#000000" font-family="sans-serif" font-size="11" lengthAdjust="spacingAndGlyphs" textLength="130" x="397.5" y="352.7676">id : number «generated»</text><line style="stroke: #A80036; stroke-width: 1.0;" x1="378.5" x2="532.5" y1="359.0879" y2="359.0879"/><ellipse cx="388.5" cy="371.0654" fill="#000000" rx="3" ry="3" style="stroke: #000000; stroke-width: 1.0;"/><text fill="#000000" font-family="sans-serif" font-size="11" lengthAdjust="spacingAndGlyphs" textLength="125" x="397.5" y="373.7227">office_id : number «FK»</text><ellipse cx="388.5" cy="384.0205" fill="#000000" rx="3" ry="3" style="stroke: #000000; stroke-width: 1.0;"/><text fill="#000000" font-family="sans-serif" font-size="11" lengthAdjust="spacingAndGlyphs" textLength="56" x="397.5" y="386.6777">code : text</text><text fill="#000000" font-family="sans-serif" font-size="11" lengthAdjust="spacingAndGlyphs" textLength="59" x="397.5" y="399.6328">name : text</text><text fill="#000000" font-family="sans-serif" font-size="11" lengthAdjust="spacingAndGlyphs" textLength="88" x="397.5" y="412.5879">shortname : text</text><text fill="#000000" font-family="sans-serif" font-size="11" lengthAdjust="spacingAndGlyphs" textLength="50" x="397.5" y="425.543">type: text</text><!--link organisation to user--><path d="M118.75,95.2995 C118.75,95.2995 118.75,139.9306 118.75,139.9306 " fill="none" id="organisation-user" style="stroke: #A80036; stroke-width: 1.0;"/><line style="stroke: #A80036; stroke-width: 1.0;" x1="118.75" x2="124.75" y1="139.9306" y2="147.9306"/><line style="stroke: #A80036; stroke-width: 1.0;" x1="118.75" x2="112.75" y1="139.9306" y2="147.9306"/><line style="stroke: #A80036; stroke-width: 1.0;" x1="118.75" x2="118.75" y1="139.9306" y2="147.9306"/><ellipse cx="118.75" cy="133.9306" fill="none" rx="4" ry="4" style="stroke: #A80036; stroke-width: 1.0;"/><line style="stroke: #A80036; stroke-width: 1.0;" x1="114.75" x2="122.75" y1="91.2995" y2="91.2995"/><line style="stroke: #A80036; stroke-width: 1.0;" x1="114.75" x2="122.75" y1="94.2995" y2="94.2995"/><line style="stroke: #A80036; stroke-width: 1.0;" x1="118.75" x2="118.75" y1="95.2995" y2="87.2995"/><!--link organisation to office--><path d="M206.7883,48 C206.7883,48 324.5,48 324.5,48 C324.5,48 324.5,139.5909 324.5,139.5909 " fill="none" id="organisation-office" style="stroke: #A80036; stroke-width: 1.0;"/><line style="stroke: #A80036; stroke-width: 1.0;" x1="324.5" x2="330.5" y1="139.5909" y2="147.5909"/><line style="stroke: #A80036; stroke-width: 1.0;" x1="324.5" x2="318.5" y1="139.5909" y2="147.5909"/><line style="stroke: #A80036; stroke-width: 1.0;" x1="324.5" x2="324.5" y1="139.5909" y2="147.5909"/><ellipse cx="324.5" cy="133.5909" fill="none" rx="4" ry="4" style="stroke: #A80036; stroke-width: 1.0;"/><line style="stroke: #A80036; stroke-width: 1.0;" x1="202.7883" x2="202.7883" y1="52" y2="44"/><line style="stroke: #A80036; stroke-width: 1.0;" x1="205.7883" x2="205.7883" y1="52" y2="44"/><line style="stroke: #A80036; stroke-width: 1.0;" x1="206.7883" x2="198.7883" y1="48" y2="48"/><!--link office to journal--><path d="M250.75,261.193 C250.75,261.193 250.75,312.3327 250.75,312.3327 " fill="none" id="office-journal" style="stroke: #A80036; stroke-width: 1.0;"/><line style="stroke: #A80036; stroke-width: 1.0;" x1="250.75" x2="256.75" y1="312.3327" y2="320.3327"/><line style="stroke: #A80036; stroke-width: 1.0;" x1="250.75" x2="244.75" y1="312.3327" y2="320.3327"/><line style="stroke: #A80036; stroke-width: 1.0;" x1="250.75" x2="250.75" y1="312.3327" y2="320.3327"/><ellipse cx="250.75" cy="306.3327" fill="none" rx="4" ry="4" style="stroke: #A80036; stroke-width: 1.0;"/><line style="stroke: #A80036; stroke-width: 1.0;" x1="246.75" x2="254.75" y1="257.193" y2="257.193"/><line style="stroke: #A80036; stroke-width: 1.0;" x1="246.75" x2="254.75" y1="260.193" y2="260.193"/><line style="stroke: #A80036; stroke-width: 1.0;" x1="250.75" x2="250.75" y1="261.193" y2="253.193"/><!--link office to dimension--><path d="M288,261.0679 C288,261.0679 288,819.6729 288,819.6729 " fill="none" id="office-dimension" style="stroke: #A80036; stroke-width: 1.0;"/><line style="stroke: #A80036; stroke-width: 1.0;" x1="288" x2="294" y1="819.6729" y2="827.6729"/><line style="stroke: #A80036; stroke-width: 1.0;" x1="288" x2="282" y1="819.6729" y2="827.6729"/><line style="stroke: #A80036; stroke-width: 1.0;" x1="288" x2="288" y1="819.6729" y2="827.6729"/><ellipse cx="288" cy="813.6729" fill="none" rx="4" ry="4" style="stroke: #A80036; stroke-width: 1.0;"/><line style="stroke: #A80036; stroke-width: 1.0;" x1="284" x2="292" y1="257.0679" y2="257.0679"/><line style="stroke: #A80036; stroke-width: 1.0;" x1="284" x2="292" y1="260.0679" y2="260.0679"/><line style="stroke: #A80036; stroke-width: 1.0;" x1="288" x2="288" y1="261.0679" y2="253.0679"/><!--link office to vat_code--><path d="M398.25,261.193 C398.25,261.193 398.25,305.6994 398.25,305.6994 " fill="none" id="office-vat_code" style="stroke: #A80036; stroke-width: 1.0;"/><line style="stroke: #A80036; stroke-width: 1.0;" x1="398.25" x2="404.25" y1="305.6994" y2="313.6994"/><line style="stroke: #A80036; stroke-width: 1.0;" x1="398.25" x2="392.25" y1="305.6994" y2="313.6994"/><line style="stroke: #A80036; stroke-width: 1.0;" x1="398.25" x2="398.25" y1="305.6994" y2="313.6994"/><ellipse cx="398.25" cy="299.6994" fill="none" rx="4" ry="4" style="stroke: #A80036; stroke-width: 1.0;"/><line style="stroke: #A80036; stroke-width: 1.0;" x1="394.25" x2="402.25" y1="257.193" y2="257.193"/><line style="stroke: #A80036; stroke-width: 1.0;" x1="394.25" x2="402.25" y1="260.193" y2="260.193"/><line style="stroke: #A80036; stroke-width: 1.0;" x1="398.25" x2="398.25" y1="261.193" y2="253.193"/><!--link journal to transaction--><path d="M191.25,433.6683 C191.25,433.6683 191.25,484.7743 191.25,484.7743 " fill="none" id="journal-transaction" style="stroke: #A80036; stroke-width: 1.0;"/><line style="stroke: #A80036; stroke-width: 1.0;" x1="191.25" x2="197.25" y1="484.7743" y2="492.7743"/><line style="stroke: #A80036; stroke-width: 1.0;" x1="191.25" x2="185.25" y1="484.7743" y2="492.7743"/><line style="stroke: #A80036; stroke-width: 1.0;" x1="191.25" x2="191.25" y1="484.7743" y2="492.7743"/><ellipse cx="191.25" cy="478.7743" fill="none" rx="4" ry="4" style="stroke: #A80036; stroke-width: 1.0;"/><line style="stroke: #A80036; stroke-width: 1.0;" x1="187.25" x2="195.25" y1="429.6683" y2="429.6683"/><line style="stroke: #A80036; stroke-width: 1.0;" x1="187.25" x2="195.25" y1="432.6683" y2="432.6683"/><line style="stroke: #A80036; stroke-width: 1.0;" x1="191.25" x2="191.25" y1="433.6683" y2="425.6683"/><!--link transaction to transaction_line--><path d="M187.5,580.3371 C187.5,580.3371 187.5,624.7976 187.5,624.7976 " fill="none" id="transaction-transaction_line" style="stroke: #A80036; stroke-width: 1.0;"/><line style="stroke: #A80036; stroke-width: 1.0;" x1="187.5" x2="193.5" y1="624.7976" y2="632.7976"/><line style="stroke: #A80036; stroke-width: 1.0;" x1="187.5" x2="181.5" y1="624.7976" y2="632.7976"/><line style="stroke: #A80036; stroke-width: 1.0;" x1="187.5" x2="187.5" y1="624.7976" y2="632.7976"/><ellipse cx="187.5" cy="618.7976" fill="none" rx="4" ry="4" style="stroke: #A80036; stroke-width: 1.0;"/><line style="stroke: #A80036; stroke-width: 1.0;" x1="183.5" x2="191.5" y1="576.3371" y2="576.3371"/><line style="stroke: #A80036; stroke-width: 1.0;" x1="183.5" x2="191.5" y1="579.3371" y2="579.3371"/><line style="stroke: #A80036; stroke-width: 1.0;" x1="187.5" x2="187.5" y1="580.3371" y2="572.3371"/><!--link transaction_line to dimension--><path d="M210,751.0902 C210,751.0902 210,819.8826 210,819.8826 " fill="none" id="transaction_line-dimension" style="stroke: #A80036; stroke-width: 1.0;"/><line style="stroke: #A80036; stroke-width: 1.0;" x1="210" x2="210" y1="816.8826" y2="827.8826"/><ellipse cx="210" cy="816.8826" fill="none" rx="4" ry="4" style="stroke: #A80036; stroke-width: 1.0;"/><line style="stroke: #A80036; stroke-width: 1.0;" x1="214" x2="206" y1="823.8826" y2="823.8826"/><text fill="#000000" font-family="sans-serif" font-size="13" lengthAdjust="spacingAndGlyphs" textLength="8" x="152.5" y="794.5684">1</text><!--link transaction_line to dimension--><path d="M240.75,751.0902 C240.75,751.0902 240.75,819.8826 240.75,819.8826 " fill="none" id="transaction_line-dimension-1" style="stroke: #A80036; stroke-width: 1.0;"/><line style="stroke: #A80036; stroke-width: 1.0;" x1="240.75" x2="240.75" y1="816.8826" y2="827.8826"/><ellipse cx="240.75" cy="816.8826" fill="none" rx="4" ry="4" style="stroke: #A80036; stroke-width: 1.0;"/><line style="stroke: #A80036; stroke-width: 1.0;" x1="244.75" x2="236.75" y1="823.8826" y2="823.8826"/><text fill="#000000" font-family="sans-serif" font-size="13" lengthAdjust="spacingAndGlyphs" textLength="8" x="202.5" y="794.5684">2</text><!--link transaction_line to dimension--><path d="M179.25,751.0902 C179.25,751.0902 179.25,819.8826 179.25,819.8826 " fill="none" id="transaction_line-dimension-2" style="stroke: #A80036; stroke-width: 1.0;"/><line style="stroke: #A80036; stroke-width: 1.0;" x1="179.25" x2="179.25" y1="816.8826" y2="827.8826"/><ellipse cx="179.25" cy="816.8826" fill="none" rx="4" ry="4" style="stroke: #A80036; stroke-width: 1.0;"/><line style="stroke: #A80036; stroke-width: 1.0;" x1="183.25" x2="175.25" y1="823.8826" y2="823.8826"/><text fill="#000000" font-family="sans-serif" font-size="13" lengthAdjust="spacingAndGlyphs" textLength="8" x="252.5" y="794.5684">3</text><!--
@startuml

hide circle

skinparam linetype ortho

entity "Organisations" as organisation {
  *id : number <<generated>>
  - -
  *code : text
  name : text
}

entity "Users" as user {
  *id : number <<generated>>
  - -
  *organisation_id : number <<FK>>
  *code : text
  name: text
  shortname: text
}

entity "Offices" as office {
  *id : number <<generated>>
  - -
  *organisation_id : number <<FK>>
  *code : text
  name : text
  shortname : text
}

entity "Journals" as journal {
  *id : number <<generated>>
  - -
  *office_id : number <<FK>>
  *code : text
  name : text
  shortname : text
}

entity "Dimensions" as dimension {
  *id : number <<generated>>
  - -
  *office_id : number <<FK>>
  *type : text
  *code : text
}

entity "Transactions" as transaction {
  *id : number <<generated>>
  - -
  *journal_id : number <<FK>>
  *number : number
}

entity "Transaction Lines" as transaction_line {
  *id : number <<generated>>
  - -
  *transaction_id : number <<FK>>
  *line : number
  dimension_1_id : number <<FK>>
  dimension_2_id : number <<FK>>
  dimension_3_id : number <<FK>>
}

entity "VAT Codes" as vat_code {
  *id : number <<generated>>
  - -
  *office_id : number <<FK>>
  *code : text
  name : text
  shortname : text
  type: text
}

organisation ||- -o{ user
organisation ||- -o{ office
office ||- -o{ journal
office ||- -o{ dimension
office ||- -o{ vat_code
journal ||- -o{ transaction
transaction ||- -o{ transaction_line
transaction_line - -o| dimension : "1"
transaction_line - -o| dimension : "2"
transaction_line - -o| dimension : "3"

@enduml

PlantUML version 1.2019.08(Sat Jul 13 21:25:14 CEST 2019)
(GPL source distribution)
Java Runtime: Java(TM) SE Runtime Environment
JVM: Java HotSpot(TM) 64-Bit Server VM
Java Version: 1.8.0_20-b26
Operating System: Mac OS X
OS Version: 10.14.5
Default Encoding: UTF-8
Language: nl
Country: NL
--></g></svg>